<svg width="400" height="400" xmlns="http://www.w3.org/2000/svg">
 <!-- Created with Liveweave.com -->
 <g>
  <title>background</title>
  <rect fill="#ffffff" id="canvas_background" height="402" width="402" y="-1" x="-1"/>
  <g display="none" overflow="visible" y="0" x="0" height="100%" width="100%" id="canvasGrid">
   <rect fill="url(#gridpattern)" stroke-width="0" y="0" x="0" height="100%" width="100%"/>
  </g>
 </g>
 <g>
  <title>Layer 1</title>
  <ellipse ry="133.499996" rx="133.499996" id="svg_2" cy="219.201554" cx="143.96739" stroke-width="10.5" stroke="#000" fill="#ffff00"/>
  <ellipse ry="35.861966" rx="23.448209" id="svg_4" cy="188.93128" cx="94.795106" stroke-width="10.5" stroke="#000" fill="#fff"/>
  <ellipse ry="35.861966" rx="23.448209" id="svg_6" cy="188.93128" cx="185.926652" stroke-width="10.5" stroke="#000" fill="#fff"/>
  <ellipse stroke="#000" ry="8.23533" rx="7.352973" id="svg_9" cy="206.823163" cx="102.320171" fill-opacity="null" stroke-opacity="null" stroke-width="16.5" fill="#fff"/>
  <ellipse stroke="#000" ry="8.23533" rx="7.352973" id="svg_10" cy="206.823163" cx="191.732326" fill-opacity="null" stroke-opacity="null" stroke-width="16.5" fill="#fff"/>
  <path id="svg_11" d="m311.83521,227.128463c-11.733152,-3.112562 -18.530499,-15.908979 -17.728712,-27.517466c-0.30037,-15.162857 1.098599,-31.118048 -6.152141,-45.06012c-4.132829,-10.409709 -11.173148,-19.600565 -14.111176,-30.448611c-3.656074,-16.830012 0.859956,-35.905127 14.466992,-47.203764c15.34553,-13.149167 39.851176,-14.863012 56.743559,-3.687019c11.914323,8.206762 20.510776,21.742536 20.191413,36.513249c1.398006,11.036997 -2.957964,21.418246 -8.082282,30.906345c-3.671363,7.639541 -7.958981,15.115204 -11.291311,22.839927c-0.878485,15.838542 -0.374657,31.822359 -2.757454,47.524667c-3.969297,12.167489 -18.92806,20.440174 -31.278888,16.132784l0,0.000007zm30.989,-28.319579c-6.963296,-3.753426 -16.969512,-1.31313 -25.063326,-2.121185c-6.611576,1.322418 -18.359638,-2.712385 -21.874487,3.339985c8.038234,3.144428 17.484845,0.787315 26.042308,1.307547c6.847258,-0.657634 14.72518,0.623637 20.895505,-2.526354l0,0.000007zm-0.5215,-7.06286c1.024763,-9.535918 -14.054813,-4.669911 -20.180698,-6.089467c-8.108014,1.641131 -21.011185,-3.512891 -26.110482,3.813872c3.021689,7.362838 16.497617,2.184638 23.574071,3.81826c7.546324,-0.267409 15.375265,0.270469 22.717102,-1.542665l0.000007,0zm0.093885,-16.707759c1.990693,-18.576214 13.348683,-34.043264 19.925465,-51.035779c5.407368,-20.344921 -5.301765,-43.588052 -24.690534,-52.127985c-19.298542,-9.564564 -45.010447,-2.339115 -55.916691,16.402443c-10.508245,15.481012 -8.50282,36.515387 1.767671,51.570543c7.328254,13.157419 13.175073,27.943594 12.222646,43.255816c15.21174,0 30.423486,0 45.635239,0c0.352086,-2.688306 0.704052,-5.376791 1.056204,-8.065038zm-33.676257,-26.31746c-6.026955,-10.479423 -12.214069,-21.039599 -16.410942,-32.396723c3.773255,-4.88431 4.870918,-10.324913 6.043067,-16.063735c10.590406,-2.080217 -1.348036,12.068665 8.650811,12.38751c8.875499,3.861658 4.98195,-18.737986 12.355886,-10.591883c-5.293268,8.94029 10.397384,17.834188 10.973242,5.044688c-0.760654,-9.656677 9.483847,-7.847413 5.489728,0.913179c0.32966,4.506605 7.667036,5.798591 7.792661,9.423199c-5.282181,11.457502 -9.873528,23.286482 -16.128231,34.255087c-1.407865,-4.246745 5.537248,-14.890496 7.756486,-21.140023c4.282313,-5.402185 7.962154,-19.960624 -3.201573,-17.976157c-6.475946,10.100815 -15.187475,-6.36702 -21.528329,3.313098c-5.382725,1.60562 -13.848574,-9.322097 -15.410045,1.185109c4.05404,12.479869 12.489597,23.115886 16.903224,35.46693c-1.49766,-0.883006 -2.350466,-2.432163 -3.285984,-3.820285l0,0.000007zm-8.459489,-45.737192c-2.930752,-1.430364 1.235284,7.604097 -0.00006,0l0.00006,0zm17.517056,1.067098c-3.804424,-6.438559 -1.764046,7.811989 0,0zm16.979006,0c-3.804424,-6.438559 -1.764073,7.811989 0,0zm-79.045189,-47.575407c-6.724242,-6.824476 -14.157063,-13.228121 -20.004944,-20.750568c14.60928,12.093228 27.98092,25.71279 41.146693,39.366461c3.496094,4.804127 -6.099164,-4.48627 -7.884992,-6.043547c-4.468338,-4.138254 -8.878148,-8.33941 -13.256763,-12.572346l0.000007,0zm103.835802,19.511885c11.365611,-14.161529 21.969985,-29.00789 34.223787,-42.415059c-2.051876,5.772454 -8.657025,12.679615 -12.810095,18.624716c-6.935599,8.628634 -13.418562,17.751828 -21.349594,25.488241c-0.989876,1.046299 -2.468005,-1.431937 -0.063991,-1.697898l-0.0001,0l-0.000007,0zm-24.618179,-13.434845c3.926915,-11.232117 9.622975,-21.923767 15.977731,-31.976258c-0.147692,5.576618 -6.887382,16.146168 -10.126895,23.060957c-1.832571,2.782576 -3.378296,7.220205 -5.850836,8.915301zm-50.287934,-14.404772c-2.73546,-3.990051 -10.969922,-13.28076 -9.432423,-14.547764c7.939085,8.802529 16.013753,17.888108 21.716803,28.297857c-4.856724,-3.724893 -8.351337,-9.104871 -12.284387,-13.750093l0.000007,0zm31.438529,-3.140212c-0.553618,-3.747199 1.16498,-21.635499 2.119737,-9.488975c0.003392,7.610364 0.797764,16.177768 -1.320545,23.104627c-0.907111,-4.453422 -0.68703,-9.089708 -0.799192,-13.615651z" stroke-opacity="null" stroke-width="5.5" stroke="#000" fill="#fff"/>
  <path stroke="#000" id="svg_12" d="m69.461714,267.521148c41.60025,26.40015 75.76891,24.73694 81.28642,25.16577c43.40898,-10.19724 66.71447,-29.1658 66.71447,-29.1658" stroke-opacity="null" stroke-width="10" fill="#ffff00"/>
 </g>
</svg>